<svg width="512" height="512" viewBox="0 0 1024 1024" xmlns="http://www.w3.org/2000/svg" role="img" aria-label="Zroky mark">
  <rect width="1024" height="1024" fill="#FFFFFF"/>
  <g fill="#0A0A0A">
    <path d="M470 190
             C520 190 540 235 528 275
             C610 300 700 330 770 410
             C828 470 820 552 756 592
             C676 660 600 720 548 780
             C578 706 556 648 560 596
             C630 520 602 466 516 444
             C452 426 424 356 430 312
             C434 250 430 200 470 190 Z"/>
    <path transform="rotate(180 512 512)"
          d="M470 190
             C520 190 540 235 528 275
             C610 300 700 330 770 410
             C828 470 820 552 756 592
             C676 660 600 720 548 780
             C578 706 556 648 560 596
             C630 520 602 466 516 444
             C452 426 424 356 430 312
             C434 250 430 200 470 190 Z"/>
  </g>
</svg>
